<svg width="19" height="18" viewBox="0 0 19 18" fill="none" xmlns="http://www.w3.org/2000/svg">
<path d="M2.08011 1.66388H15.4516C15.4919 1.66388 15.5287 1.67932 15.5664 1.69091L15.8951 0.589594C15.9996 0.239363 16.3164 0 16.6754 0H18.3071C18.5324 0 18.715 0.186249 18.715 0.41598V1.2479C18.715 1.47763 18.5324 1.66388 18.3071 1.66388H17.2797L14.7309 10.2046L15.6829 11.337C16.0591 11.7846 16.2285 12.4013 16.0553 12.9637C15.8339 13.683 15.2113 14.1429 14.4935 14.1429H2.80593C2.58064 14.1429 2.39799 13.9566 2.39799 13.7269V12.895C2.39799 12.6652 2.58064 12.479 2.80593 12.479H14.4936L13.2005 10.9406C13.168 10.9019 13.144 10.8583 13.1194 10.8151H5.21443C4.58216 10.8151 4.0068 10.4428 3.73756 9.8594L0.890982 3.69125C0.809333 3.51374 0.76631 3.31673 0.76631 3.12131V3.0035C0.76631 2.26369 1.35453 1.66388 2.08011 1.66388Z" fill="#F9FBFF"/>
<path d="M13.9073 18.0001C13.0223 18.0001 12.3048 17.2805 12.3048 16.3929C12.3048 15.5053 13.0223 14.7858 13.9073 14.7858C14.7924 14.7858 15.5099 15.5053 15.5099 16.3929C15.5099 17.2805 14.7924 18.0001 13.9073 18.0001Z" fill="white"/>
<path d="M4.29197 18.0001C3.4069 18.0001 2.6894 17.2805 2.6894 16.3929C2.6894 15.5053 3.4069 14.7858 4.29197 14.7858C5.17704 14.7858 5.89453 15.5053 5.89453 16.3929C5.89453 17.2805 5.17704 18.0001 4.29197 18.0001Z" fill="white"/>
</svg>
